<svg width="21" height="22" viewBox="0 0 21 22" fill="none" xmlns="http://www.w3.org/2000/svg">
<path d="M12.8 19.24C11.504 19.24 10.288 19 9.152 18.52C8.032 18.024 7.048 17.344 6.2 16.48C5.368 15.6 4.712 14.576 4.232 13.408C3.768 12.24 3.536 10.976 3.536 9.616C3.536 8.272 3.768 7.024 4.232 5.872C4.712 4.704 5.368 3.688 6.2 2.824C7.048 1.944 8.032 1.256 9.152 0.759999C10.272 0.263999 11.488 0.0159998 12.8 0.0159998C14.032 0.0159998 15.088 0.176 15.968 0.495999C16.864 0.815999 17.76 1.344 18.656 2.08C18.784 2.176 18.88 2.28 18.944 2.392C19.024 2.488 19.072 2.592 19.088 2.704C19.12 2.8 19.136 2.92 19.136 3.064C19.136 3.368 19.024 3.624 18.8 3.832C18.592 4.024 18.336 4.136 18.032 4.168C17.728 4.184 17.432 4.08 17.144 3.856C16.552 3.344 15.936 2.952 15.296 2.68C14.672 2.408 13.84 2.272 12.8 2.272C11.856 2.272 10.968 2.464 10.136 2.848C9.304 3.232 8.568 3.76 7.928 4.432C7.304 5.104 6.816 5.888 6.464 6.784C6.112 7.664 5.936 8.608 5.936 9.616C5.936 10.64 6.112 11.6 6.464 12.496C6.816 13.376 7.304 14.152 7.928 14.824C8.568 15.496 9.304 16.024 10.136 16.408C10.968 16.776 11.856 16.96 12.8 16.96C13.616 16.96 14.384 16.824 15.104 16.552C15.84 16.264 16.544 15.872 17.216 15.376C17.504 15.168 17.784 15.08 18.056 15.112C18.344 15.128 18.584 15.24 18.776 15.448C18.968 15.64 19.064 15.912 19.064 16.264C19.064 16.424 19.032 16.584 18.968 16.744C18.904 16.888 18.808 17.024 18.68 17.152C17.816 17.84 16.888 18.36 15.896 18.712C14.92 19.064 13.888 19.24 12.8 19.24Z" fill="#595D62"/>
<path d="M12.1746 9.5127C12.0121 9.35016 11.8192 9.22122 11.6068 9.13325C11.3945 9.04528 11.1669 9 10.937 9C10.7072 9 10.4796 9.04528 10.2672 9.13325C10.0549 9.22122 9.86195 9.35016 9.69944 9.5127C9.69179 9.52036 9.68413 9.52856 9.67648 9.53731L6.75562 12.9504L6.17866 12.3718C6.05678 12.2498 5.91206 12.1531 5.75277 12.0871C5.59349 12.0211 5.42276 11.9871 5.25034 11.9871C5.07793 11.9871 4.9072 12.0211 4.74791 12.0871C4.58863 12.1531 4.44391 12.2498 4.32202 12.3718L0.128039 16.5663C0.0460542 16.6483 0 16.7596 0 16.8756C0 16.9915 0.0460542 17.1028 0.128039 17.1848L4.50304 21.5598C4.58508 21.6418 4.69631 21.6879 4.8123 21.6879C4.92828 21.6879 5.03952 21.6418 5.12155 21.5598L9.31554 17.368C9.43749 17.2461 9.53423 17.1014 9.60023 16.9421C9.66623 16.7828 9.7002 16.6121 9.7002 16.4397C9.7002 16.2673 9.66623 16.0966 9.60023 15.9373C9.53423 15.778 9.43749 15.6333 9.31554 15.5114L8.73694 14.9333L12.15 12.0086C12.1582 12.001 12.1669 11.9933 12.1746 11.9851C12.502 11.657 12.6859 11.2124 12.6859 10.7489C12.6859 10.2854 12.502 9.84079 12.1746 9.5127ZM4.81148 20.6323L3.89929 19.7196L5.12101 18.4973C5.19959 18.4146 5.24275 18.3045 5.24129 18.1904C5.23983 18.0763 5.19386 17.9673 5.11319 17.8866C5.03251 17.8059 4.92351 17.76 4.80943 17.7585C4.69535 17.7571 4.58521 17.8002 4.50249 17.8788L3.28023 19.1005L2.58679 18.4071L3.80851 17.1848C3.88709 17.1021 3.93025 16.992 3.92879 16.8779C3.92733 16.7638 3.88136 16.6548 3.80069 16.5741C3.72001 16.4934 3.61101 16.4475 3.49693 16.446C3.38285 16.4446 3.27271 16.4877 3.18999 16.5663L1.96773 17.788L1.05499 16.8758L3.80851 14.1229L7.56499 17.8793L4.81148 20.6323Z" fill="#595D62"/>
</svg>
